<svg width="48" height="48" viewBox="0 0 48 48" fill="none" xmlns="http://www.w3.org/2000/svg" xmlns:xlink="http://www.w3.org/1999/xlink">
<line x1="24.5" y1="10" x2="24.5" y2="38" stroke="#282828" stroke-width="1.5" stroke-miterlimit="3.999327" stroke-linecap="round" stroke-linejoin="round"/>
<path d="M9.939,36.939C9.354,37.525 9.354,38.475 9.939,39.061C10.525,39.646 11.475,39.646 12.061,39.061L9.939,36.939ZM24.061,27.061C24.646,26.475 24.646,25.525 24.061,24.939C23.475,24.354 22.525,24.354 21.939,24.939L24.061,27.061ZM12.061,39.061L24.061,27.061L21.939,24.939L9.939,36.939L12.061,39.061Z" transform="rotate(180 17 32)" fill="#282828"/>
<path d="M24.061,24.939C23.475,24.354 22.525,24.354 21.939,24.939C21.354,25.525 21.354,26.475 21.939,27.061L24.061,24.939ZM33.939,39.061C34.525,39.646 35.475,39.646 36.061,39.061C36.646,38.475 36.646,37.525 36.061,36.939L33.939,39.061ZM21.939,27.061L33.939,39.061L36.061,36.939L24.061,24.939L21.939,27.061Z" transform="rotate(180 29 32)" fill="#282828"/>
</svg>
