<svg width="48" height="48" viewBox="0 0 48 48" fill="none" xmlns="http://www.w3.org/2000/svg" xmlns:xlink="http://www.w3.org/1999/xlink">
<line x1="10" y1="22.5" x2="38" y2="22.5" stroke="#FFFFFF" stroke-width="1.5" stroke-miterlimit="3.999327" stroke-linecap="round" stroke-linejoin="round"/>
<path d="M24.939,34.939C24.354,35.525 24.354,36.475 24.939,37.061C25.525,37.646 26.475,37.646 27.061,37.061L24.939,34.939ZM39.061,25.061C39.646,24.475 39.646,23.525 39.061,22.939C38.475,22.354 37.525,22.354 36.939,22.939L39.061,25.061ZM27.061,37.061L39.061,25.061L36.939,22.939L24.939,34.939L27.061,37.061Z" fill="#FFFFFF"/>
<path d="M27.061,10.939C26.475,10.354 25.525,10.354 24.939,10.939C24.354,11.525 24.354,12.475 24.939,13.061L27.061,10.939ZM36.939,25.061C37.525,25.646 38.475,25.646 39.061,25.061C39.646,24.475 39.646,23.525 39.061,22.939L36.939,25.061ZM24.939,13.061L36.939,25.061L39.061,22.939L27.061,10.939L24.939,13.061Z" fill="#FFFFFF"/>
</svg>
