<svg width="48" height="48" viewBox="0 0 48 48" fill="none" xmlns="http://www.w3.org/2000/svg" xmlns:xlink="http://www.w3.org/1999/xlink">
<line x1="25.5" y1="10" x2="25.5" y2="38" stroke="#282828" stroke-width="1.5" stroke-miterlimit="3.999327" stroke-linecap="round" stroke-linejoin="round"/>
<path d="M10.939,36.939C10.354,37.525 10.354,38.475 10.939,39.061C11.525,39.646 12.475,39.646 13.061,39.061L10.939,36.939ZM25.061,27.061C25.646,26.475 25.646,25.525 25.061,24.939C24.475,24.354 23.525,24.354 22.939,24.939L25.061,27.061ZM13.061,39.061L25.061,27.061L22.939,24.939L10.939,36.939L13.061,39.061Z" transform="rotate(180 18 32)" fill="#282828"/>
<path d="M25.061,24.939C24.475,24.354 23.525,24.354 22.939,24.939C22.354,25.525 22.354,26.475 22.939,27.061L25.061,24.939ZM34.939,39.061C35.525,39.646 36.475,39.646 37.061,39.061C37.646,38.475 37.646,37.525 37.061,36.939L34.939,39.061ZM22.939,27.061L34.939,39.061L37.061,36.939L25.061,24.939L22.939,27.061Z" transform="rotate(180 30 32)" fill="#282828"/>
</svg>
