<svg width="50" height="48" viewBox="0 0 50 48" fill="none" xmlns="http://www.w3.org/2000/svg" xmlns:xlink="http://www.w3.org/1999/xlink">
<line x1="26.5" y1="10" x2="26.5" y2="38" stroke="#282828" stroke-width="1.5" stroke-miterlimit="3.999327" stroke-linecap="round" stroke-linejoin="round"/>
<path d="M11.939,36.939C11.354,37.525 11.354,38.475 11.939,39.061C12.525,39.646 13.475,39.646 14.061,39.061L11.939,36.939ZM26.061,27.061C26.646,26.475 26.646,25.525 26.061,24.939C25.475,24.354 24.525,24.354 23.939,24.939L26.061,27.061ZM14.061,39.061L26.061,27.061L23.939,24.939L11.939,36.939L14.061,39.061Z" transform="rotate(180 19 32)" fill="#282828"/>
<path d="M26.061,24.939C25.475,24.354 24.525,24.354 23.939,24.939C23.354,25.525 23.354,26.475 23.939,27.061L26.061,24.939ZM35.939,39.061C36.525,39.646 37.475,39.646 38.061,39.061C38.646,38.475 38.646,37.525 38.061,36.939L35.939,39.061ZM23.939,27.061L35.939,39.061L38.061,36.939L26.061,24.939L23.939,27.061Z" transform="rotate(180 31 32)" fill="#282828"/>
</svg>
